<svg xmlns="http://www.w3.org/2000/svg" fill="none" viewBox="0 0 24 24" shape-rendering="geometricPrecision">
      <style>
        .animated { 
          animation: breathing 3s ease-in-out infinite;
        }
        @keyframes breathing {
          0% { opacity: 1; transform: scale(1); }
          50% { opacity: 0.7; transform: scale(1.05); }
          100% { opacity: 1; transform: scale(1); }
        }
      </style><path class="animated" d="M0 0h24v24H0z"/><path class="animated" fill="#8bc34a" d="M13 3a9 9 0 0 0-9 9H1l4 4 4-4H6c0-3.87 3.13-7 7-7s7 3.13 7 7-3.13 7-7 7c-1.93 0-3.68-.79-4.94-2.06l-1.42 1.42A8.95 8.95 0 0 0 13 21a9 9 0 0 0 0-18m-1 5v5l4.25 2.52.77-1.28-3.52-2.09V8z"/></svg>