<svg xmlns="http://www.w3.org/2000/svg" viewBox="0 0 1024 1024" shape-rendering="geometricPrecision">
      <style>
        .animated { 
          animation: breathing 3s ease-in-out infinite;
        }
        @keyframes breathing {
          0% { opacity: 1; transform: scale(1); }
          50% { opacity: 0.7; transform: scale(1.05); }
          100% { opacity: 1; transform: scale(1); }
        }
      </style><path class="animated" fill="#1e88e5" d="M256 192c-106.039 0-192 85.961-192 192 .189 103.43 82.273 188.122 185.646 191.545L128 832h128l173.473-365.715C441.746 440.412 447.323 412.44 448 384c0-106.039-85.961-192-192-192m512 0c-106.039 0-192 85.961-192 192 .189 103.43 82.273 188.122 185.646 191.545L640 832h128l173.473-365.715C953.746 440.412 959.323 412.44 960 384c0-106.039-85.961-192-192-192"/></svg>