<svg xmlns="http://www.w3.org/2000/svg" viewBox="0 0 32 32" shape-rendering="geometricPrecision">
      <style>
        .animated { 
          animation: breathing 3s ease-in-out infinite;
        }
        @keyframes breathing {
          0% { opacity: 1; transform: scale(1); }
          50% { opacity: 0.7; transform: scale(1.05); }
          100% { opacity: 1; transform: scale(1); }
        }
      </style><path class="animated" fill="#90a4ae" d="M24 18h-3v-4h3a6 6 0 1 0-6-6v3h-4V8a6 6 0 1 0-6 6h3v4H8a6 6 0 1 0 6 6v-3h4v3a6 6 0 1 0 6-6M21 8a3 3 0 1 1 3 3h-3ZM11 24a3 3 0 1 1-3-3h3Zm0-13H8a3 3 0 1 1 3-3Zm7 7h-4v-4h4Zm6 9a3.003 3.003 0 0 1-3-3v-3h3a3 3 0 0 1 0 6"/></svg>