<svg xmlns="http://www.w3.org/2000/svg" viewBox="0 0 32 32" shape-rendering="geometricPrecision">
      <style>
        .animated { 
          animation: pulse 2.5s ease-in-out infinite;
        }
        @keyframes pulse {
          0% { opacity: 1; }
          50% { opacity: 0.7; }
          100% { opacity: 1; }
        }
      </style><path class="animated" fill="#f4511e" d="M12 4h4v8h-4a4 4 0 0 1-4-4 4 4 0 0 1 4-4"/><path class="animated" fill="#ff8a65" d="M20 12h-4V4h4a4 4 0 0 1 4 4 4 4 0 0 1-4 4"/><rect class="animated" width="8" height="8" x="16" y="12" fill="#29b6f6" rx="4" transform="rotate(180 20 16)"/><path class="animated" fill="#7c4dff" d="M12 12h4v8h-4a4 4 0 0 1-4-4 4 4 0 0 1 4-4"/><path class="animated" fill="#00e676" d="M12 20h4v4a4 4 0 0 1-4 4 4 4 0 0 1-4-4 4 4 0 0 1 4-4"/></svg>