<svg xmlns="http://www.w3.org/2000/svg" xml:space="preserve" viewBox="0 0 32 32" shape-rendering="geometricPrecision">
      <style>
        .animated { 
          animation: breathing 3s ease-in-out infinite;
        }
        @keyframes breathing {
          0% { opacity: 1; transform: scale(1); }
          50% { opacity: 0.7; transform: scale(1.05); }
          100% { opacity: 1; transform: scale(1); }
        }
      </style><path class="animated" fill="#03a9f4" d="M29 12H9.4a2 2 0 0 0-1.9 1.4L4 24V10h24a2 2 0 0 0-2-2H15.1a2 2 0 0 1-1.3-.5l-1.2-1a2 2 0 0 0-1.3-.5H4a2 2 0 0 0-2 2v16a2 2 0 0 0 2 2h22l4.8-11.2A2 2 0 0 0 29 12"/><path class="animated" fill="#b3e5fc" d="m20 10-8 8 4 4 12-12zm4 8-6 6 6 6h8l-6-6 6-6z"/></svg>