<svg xmlns="http://www.w3.org/2000/svg" viewBox="0 0 32 32" shape-rendering="geometricPrecision">
      <style>
        .animated { 
          animation: breathing 3s ease-in-out infinite;
        }
        @keyframes breathing {
          0% { opacity: 1; transform: scale(1); }
          50% { opacity: 0.7; transform: scale(1.05); }
          100% { opacity: 1; transform: scale(1); }
        }
      </style><path class="animated" fill="#ffa726" d="m13.844 7.536-1.288-1.072A2 2 0 0 0 11.276 6H4a2 2 0 0 0-2 2v16a2 2 0 0 0 2 2h24a2 2 0 0 0 2-2V10a2 2 0 0 0-2-2H15.124a2 2 0 0 1-1.28-.464"/><path class="animated" fill="#ffe0b2" d="M16 16.006h4v4h-4zm0 6h4v4h-4zm6-2h4v6h-4zm0-4h4v2h-4z"/><path class="animated" fill="#ffe0b2" d="M32 16.006v-2h-2v-1a1 1 0 0 0-1-1H13a1 1 0 0 0-1 1v16a1 1 0 0 0 1 1h16a1 1 0 0 0 1-1v-1h2v-2h-2v-4h2v-2h-2v-4Zm-4 12H14v-14h14Z"/></svg>