<svg xmlns="http://www.w3.org/2000/svg" viewBox="0 0 32 32" shape-rendering="geometricPrecision">
      <style>
        .animated { 
          animation: breathing 3s ease-in-out infinite;
        }
        @keyframes breathing {
          0% { opacity: 1; transform: scale(1); }
          50% { opacity: 0.7; transform: scale(1.05); }
          100% { opacity: 1; transform: scale(1); }
        }
      </style><path class="animated" fill="#ffca28" d="m13.844 7.536-1.288-1.072A2 2 0 0 0 11.276 6H4a2 2 0 0 0-2 2v16a2 2 0 0 0 2 2h24a2 2 0 0 0 2-2V10a2 2 0 0 0-2-2H15.124a2 2 0 0 1-1.28-.464"/><ellipse class="animated" cx="24" cy="14" fill="#ffecb3" rx="8" ry="4"/><path class="animated" fill="#ffecb3" d="M24 26c-4.418 0-8-1.79-8-4v4c0 2.21 3.582 4 8 4s8-1.79 8-4v-4c0 2.21-3.582 4-8 4"/><path class="animated" fill="#ffecb3" d="M24 20c-4.418 0-8-1.79-8-4v4c0 2.21 3.582 4 8 4s8-1.79 8-4v-4c0 2.21-3.582 4-8 4"/></svg>