<svg xmlns="http://www.w3.org/2000/svg" viewBox="0 0 32 32" shape-rendering="geometricPrecision">
      <style>
        .animated { 
          animation: breathing 3s ease-in-out infinite;
        }
        @keyframes breathing {
          0% { opacity: 1; transform: scale(1); }
          50% { opacity: 0.7; transform: scale(1.05); }
          100% { opacity: 1; transform: scale(1); }
        }
      </style><path class="animated" fill="#009688" d="m13.844 7.6-1.288-1.073a2 2 0 0 0-1.28-.463H4a2 2 0 0 0-2 2v16a2 2 0 0 0 2 2h24a2 2 0 0 0 2-2v-14a2 2 0 0 0-2-2H15.124a2 2 0 0 1-1.28-.464"/><circle class="animated" cx="28" cy="24" r="4" fill="#b2dfdb"/><circle class="animated" cx="20" cy="24" r="4" fill="#b2dfdb"/><circle class="animated" cx="28" cy="16" r="4" fill="#b2dfdb"/><circle class="animated" cx="20" cy="16" r="4" fill="#b2dfdb"/></svg>