<svg xmlns="http://www.w3.org/2000/svg" viewBox="0 0 32 32" shape-rendering="geometricPrecision">
      <style>
        .animated { 
          animation: breathing 3s ease-in-out infinite;
        }
        @keyframes breathing {
          0% { opacity: 1; transform: scale(1); }
          50% { opacity: 0.7; transform: scale(1.05); }
          100% { opacity: 1; transform: scale(1); }
        }
      </style><path class="animated" fill="#ef5350" d="m13.844 7.536-1.288-1.072A2 2 0 0 0 11.276 6H4a2 2 0 0 0-2 2v16a2 2 0 0 0 2 2h24a2 2 0 0 0 2-2V10a2 2 0 0 0-2-2H15.124c-.468 0-.921-.164-1.28-.464"/><path class="animated" fill="#ffcdd2" d="M12 24h8v4h-8Zm12 0h8v4h-8Zm-12-6h4v4h-4Zm16 0h4v4h-4Zm-10-8h8v4h-8Zm4 14-4-4h2v-4h4v4h2Z"/></svg>