<svg xmlns="http://www.w3.org/2000/svg" viewBox="0 0 32 32" shape-rendering="geometricPrecision">
      <style>
        .animated { 
          animation: breathing 3s ease-in-out infinite;
        }
        @keyframes breathing {
          0% { opacity: 1; transform: scale(1); }
          50% { opacity: 0.7; transform: scale(1.05); }
          100% { opacity: 1; transform: scale(1); }
        }
      </style><path class="animated" fill="#43a047" d="M28.967 12H9.442a2 2 0 0 0-1.898 1.368L4 24V10h24a2 2 0 0 0-2-2H15.124a2 2 0 0 1-1.28-.464l-1.288-1.072A2 2 0 0 0 11.276 6H4a2 2 0 0 0-2 2v16a2 2 0 0 0 2 2h22l4.805-11.212A2 2 0 0 0 28.967 12"/><path class="animated" fill="#c8e6c9" d="M20 14v6.48l5.38 4.3 1.24-1.56-4.62-3.7V14z"/><path class="animated" fill="#c8e6c9" d="m32 10.162-2.898 2.821A9.984 9.984 0 1 0 31.8 22h-2.05a8.034 8.034 0 1 1-2.082-7.62L24.975 17H32Z"/></svg>