<svg xmlns="http://www.w3.org/2000/svg" viewBox="0 0 32 32" shape-rendering="geometricPrecision">
      <style>
        .animated { 
          animation: breathing 3s ease-in-out infinite;
        }
        @keyframes breathing {
          0% { opacity: 1; transform: scale(1); }
          50% { opacity: 0.7; transform: scale(1.05); }
          100% { opacity: 1; transform: scale(1); }
        }
      </style><path class="animated" fill="#2196f3" d="M28.967 12H9.442a2 2 0 0 0-1.898 1.368L4 24V10h24a2 2 0 0 0-2-2H15.124a2 2 0 0 1-1.28-.464l-1.288-1.072A2 2 0 0 0 11.276 6H4a2 2 0 0 0-2 2v16a2 2 0 0 0 2 2h22l4.805-11.212A2 2 0 0 0 28.967 12"/><path class="animated" fill="#bbdefb" d="M23 15.25 18.5 13l3-1.5v-3L14 13v7.75l3-1.5v-4.5L21.5 17v6.75L17 22l-3 1.5 9 4.5 9-4.5-3-1.5-4.5 2.25V17.5l4.5-2.25v4l3 1.5V13l-7.5-4.5v3l3 1.5z"/></svg>