<svg xmlns="http://www.w3.org/2000/svg" viewBox="0 0 1024 1024" shape-rendering="geometricPrecision">
      <style>
        .animated { 
          animation: breathing 3s ease-in-out infinite;
        }
        @keyframes breathing {
          0% { opacity: 1; transform: scale(1); }
          50% { opacity: 0.7; transform: scale(1.05); }
          100% { opacity: 1; transform: scale(1); }
        }
      </style><path class="animated" fill="#ffc107" d="M926.944 384h-624.8a64 64 0 0 0-60.736 43.776L128 768V320h768a64 64 0 0 0-64-64H483.968a64 64 0 0 1-40.96-14.848l-41.216-34.304A64 64 0 0 0 360.832 192H128a64 64 0 0 0-64 64v512a64 64 0 0 0 64 64h704l153.76-358.784A64 64 0 0 0 926.944 384"/><path class="animated" fill="#ffecb3" d="m640 896 64-256h-64a28.252 32.205 0 0 1-20.876-53.906L832 320l-64 256h64a28.252 32.205 0 0 1 20.876 53.906z"/></svg>