<svg xmlns="http://www.w3.org/2000/svg" viewBox="0 0 32 32" shape-rendering="geometricPrecision">
      <style>
        .animated { 
          animation: breathing 3s ease-in-out infinite;
        }
        @keyframes breathing {
          0% { opacity: 1; transform: scale(1); }
          50% { opacity: 0.7; transform: scale(1.05); }
          100% { opacity: 1; transform: scale(1); }
        }
      </style><path class="animated" fill="#009688" d="M28.967 12H9.442a2 2 0 0 0-1.898 1.368L4 24V10h24a2 2 0 0 0-2-2H15.124a2 2 0 0 1-1.28-.464l-1.288-1.072A2 2 0 0 0 11.276 6H4a2 2 0 0 0-2 2v16a2 2 0 0 0 2 2h22l4.805-11.212A2 2 0 0 0 28.967 12"/><g data-mit-no-recolor="true"><path class="animated" fill="#41b883" d="m14 29.989 7.2-14.38 1.8 3.508v3.688l-3.577 7.184ZM32 30l-7.2-14.38-1.8 3.508v3.688L26.566 30Z"/><path class="animated" fill="#35495e" d="m14 12 4.5 9 2.7-5.391L19.4 12Zm18 0-4.5 9-2.7-5.391L26.6 12Z"/></g></svg>