<svg xmlns="http://www.w3.org/2000/svg" viewBox="0 0 1024 1024" shape-rendering="geometricPrecision">
      <style>
        .animated { 
          animation: breathing 3s ease-in-out infinite;
        }
        @keyframes breathing {
          0% { opacity: 1; transform: scale(1); }
          50% { opacity: 0.7; transform: scale(1.05); }
          100% { opacity: 1; transform: scale(1); }
        }
      </style><path class="animated" fill="#ffa726" d="m443.008 241.152-41.216-34.304A64 64 0 0 0 360.832 192H128a64 64 0 0 0-64 64v512a64 64 0 0 0 64 64h768a64 64 0 0 0 64-64V320a64 64 0 0 0-64-64H483.968a64 64 0 0 1-40.96-14.848"/><path class="animated" fill="#ffe0b2" d="M512 320c-35.456 0-64 28.544-64 64v64c0 35.456 28.544 64 64 64v320c0 35.456 28.544 64 64 64h320c35.456 0 64-28.544 64-64V512c35.456 0 64-28.544 64-64v-64c0-35.456-28.544-64-64-64zm0 64h448v64H512zm128 128h192v64H640z"/></svg>