<svg xmlns="http://www.w3.org/2000/svg" viewBox="0 0 32 32" shape-rendering="geometricPrecision">
      <style>
        .animated { 
          animation: breathing 3s ease-in-out infinite;
        }
        @keyframes breathing {
          0% { opacity: 1; transform: scale(1); }
          50% { opacity: 0.7; transform: scale(1.05); }
          100% { opacity: 1; transform: scale(1); }
        }
      </style>
  <path class="animated" fill="#90a4ae" d="m13.844 7.536-1.288-1.072A2 2 0 0 0 11.276 6H4a2 2 0 0 0-2 2v16a2 2 0 0 0 2 2h24a2 2 0 0 0 2-2V10a2 2 0 0 0-2-2H15.124a2 2 0 0 1-1.28-.464"/>
  <path class="animated" fill="#cfd8dc" d="M4 8h24v16H4z"/>
  <path class="animated" fill="#2196f3" d="M12 12h8v8h-8z"/>
  <path class="animated" fill="#64b5f6" d="M14 14h4v4h-4z"/>
</svg>