<svg xmlns="http://www.w3.org/2000/svg" viewBox="0 0 32 32" shape-rendering="geometricPrecision">
      <style>
        .animated { 
          animation: breathing 3s ease-in-out infinite;
        }
        @keyframes breathing {
          0% { opacity: 1; transform: scale(1); }
          50% { opacity: 0.7; transform: scale(1.05); }
          100% { opacity: 1; transform: scale(1); }
        }
      </style><path class="animated" fill="#ff5252" d="M28.967 12H9.442a2 2 0 0 0-1.898 1.368L4 24V10h24a2 2 0 0 0-2-2H15.124a2 2 0 0 1-1.28-.464l-1.288-1.072A2 2 0 0 0 11.276 6H4a2 2 0 0 0-2 2v16a2 2 0 0 0 2 2h22l4.805-11.212A2 2 0 0 0 28.967 12"/><path class="animated" fill="#ffcdd2" d="M12 14v10a2 2 0 0 0 2 2h8v-2h-6V14h12v2h4v-2a2 2 0 0 0-2-2H14a2 2 0 0 0-2 2"/><path class="animated" fill="#ffcdd2" d="M24 19v8a1 1 0 0 0 1 1h6a1 1 0 0 0 1-1v-8a1 1 0 0 0-1-1h-6a1 1 0 0 0-1 1m6 7h-4v-6h4Z"/></svg>