<svg xmlns="http://www.w3.org/2000/svg" viewBox="0 0 32 32" shape-rendering="geometricPrecision">
      <style>
        .animated { 
          animation: breathing 3s ease-in-out infinite;
        }
        @keyframes breathing {
          0% { opacity: 1; transform: scale(1); }
          50% { opacity: 0.7; transform: scale(1.05); }
          100% { opacity: 1; transform: scale(1); }
        }
      </style><path class="animated" fill="#0097a7" d="M28.967 12H9.442a2 2 0 0 0-1.898 1.368L4 24V10h24a2 2 0 0 0-2-2H15.124a2 2 0 0 1-1.28-.464l-1.288-1.072A2 2 0 0 0 11.276 6H4a2 2 0 0 0-2 2v16a2 2 0 0 0 2 2h22l4.805-11.212A2 2 0 0 0 28.967 12"/><path class="animated" fill="#b2ebf2" d="M25.375 24.781 20 20.48V14h2v5.52l4.625 3.699z"/><path class="animated" fill="#b2ebf2" d="M22 30a10 10 0 1 1 10-10 10.01 10.01 0 0 1-10 10m0-18a8 8 0 1 0 8 8 8.01 8.01 0 0 0-8-8"/></svg>