<svg xmlns="http://www.w3.org/2000/svg" viewBox="0 0 67.733 67.733" shape-rendering="geometricPrecision">
      <style>
        .animated { 
          animation: breathing 3s ease-in-out infinite;
        }
        @keyframes breathing {
          0% { opacity: 1; transform: scale(1); }
          50% { opacity: 0.7; transform: scale(1.05); }
          100% { opacity: 1; transform: scale(1); }
        }
      </style><path class="animated" fill="#ef5350" d="M10.321 12.006c-.21 0-.38.173-.38.39v12.63c0 .215.17.389.38.389h16.925c.21 0 .38-.174.38-.39v-12.63a.384.384 0 0 0-.38-.389zm30.167 0c-.21 0-.38.173-.38.39v12.63c0 .215.17.389.38.389h16.925c.21 0 .38-.174.38-.39v-12.63a.384.384 0 0 0-.38-.389zM10.321 34.328c-.21 0-.38.173-.38.39v12.63c0 .215.17.389.38.389h16.925c.21 0 .38-.174.38-.39v-12.63a.384.384 0 0 0-.38-.389zm30.167 0c-.21 0-.38.173-.38.39v12.63c0 .215.17.389.38.389h4.053v4.351H40.51a.374.374 0 0 0-.375.375v2.89c0 .207.167.374.375.374h8.303a.373.373 0 0 0 .374-.374v-4.135h3.798a.374.374 0 0 0 .374-.375v-3.106h4.054c.21 0 .38-.174.38-.39v-12.63a.384.384 0 0 0-.38-.389z"/></svg>