<svg xmlns="http://www.w3.org/2000/svg" viewBox="0 0 32 32" shape-rendering="geometricPrecision">
      <style>
        .animated { 
          animation: pulse 2.5s ease-in-out infinite;
        }
        @keyframes pulse {
          0% { opacity: 1; }
          50% { opacity: 0.7; }
          100% { opacity: 1; }
        }
      </style><path class="animated" fill="#26a69a" d="M4 8v16a2 2 0 0 0 2 2h8a2 2 0 0 0 2-2V8a2 2 0 0 0-2-2H6a2 2 0 0 0-2 2m4 14V10h4v12Zm11.999-6L18 18.001 21 21l-3 3.001L19.999 26l3.003-3 3 2.999L28 24l-3-2.999 3-3L26.001 16l-3 3z"/></svg>