<svg xmlns="http://www.w3.org/2000/svg" viewBox="0 0 32 32" shape-rendering="geometricPrecision">
      <style>
        .animated { 
          animation: pulse 2.5s ease-in-out infinite;
        }
        @keyframes pulse {
          0% { opacity: 1; }
          50% { opacity: 0.7; }
          100% { opacity: 1; }
        }
      </style><path class="animated" fill="#f44336" d="M22 10h2v4h-2z"/><path class="animated" fill="#f44336" d="M28 2H4a2 2 0 0 0-2 2v24a2 2 0 0 0 2 2h24a2 2 0 0 0 2-2V4a2 2 0 0 0-2-2m-2 12a2 2 0 0 1-2 2h-2v4a4 4 0 0 1-4 4h-8a4 4 0 0 1-4-4V8h18a2 2 0 0 1 2 2Z"/></svg>