<svg xmlns="http://www.w3.org/2000/svg" viewBox="0 0 16 16" shape-rendering="geometricPrecision">
      <style>
        .animated { 
          animation: pulse 2.5s ease-in-out infinite;
        }
        @keyframes pulse {
          0% { opacity: 1; }
          50% { opacity: 0.7; }
          100% { opacity: 1; }
        }
      </style><path class="animated" fill="#ffca28" d="M2 2v12h12V2zm6 6h1v4a1.003 1.003 0 0 1-1 1H7a1.003 1.003 0 0 1-1-1v-1h1v1h1zm3 0h2v1h-2v1h1a1.003 1.003 0 0 1 1 1v1a1.003 1.003 0 0 1-1 1h-2v-1h2v-1h-1a1.003 1.003 0 0 1-1-1V9a1.003 1.003 0 0 1 1-1"/></svg>