<svg xmlns="http://www.w3.org/2000/svg" viewBox="0 0 16 16" shape-rendering="geometricPrecision">
      <style>
        .animated { 
          animation: bounce 3s ease-in-out infinite;
          transform-origin: center bottom;
        }
        @keyframes bounce {
          0%, 100% { transform: translateY(0); }
          50% { transform: translateY(-2px); }
        }
      </style><path class="animated" fill="#ff5252" d="M8 1a7 7 0 0 0-7 7 7 7 0 0 0 7 7 7 7 0 0 0 7-7 7 7 0 0 0-7-7m0 2a5 5 0 0 1 5 5 5 5 0 0 1-.842 2.744L5.256 3.842A5 5 0 0 1 8 3M3.842 5.256l6.902 6.902A5 5 0 0 1 8 13a5 5 0 0 1-5-5 5 5 0 0 1 .842-2.744"/></svg>