<svg xmlns="http://www.w3.org/2000/svg" viewBox="0 0 32 32" shape-rendering="geometricPrecision">
      <style>
        .animated { 
          animation: breathing 3s ease-in-out infinite;
        }
        @keyframes breathing {
          0% { opacity: 1; transform: scale(1); }
          50% { opacity: 0.7; transform: scale(1.05); }
          100% { opacity: 1; transform: scale(1); }
        }
      </style><path class="animated" fill="#ffd54f" d="M25 12h-3V8a6 6 0 0 0-12 0v4H7a1 1 0 0 0-1 1v16a1 1 0 0 0 1 1h18a1 1 0 0 0 1-1V13a1 1 0 0 0-1-1M14 8a2 2 0 0 1 4 0v4h-4Zm2 17a4 4 0 1 1 4-4 4 4 0 0 1-4 4"/></svg>