<svg xmlns="http://www.w3.org/2000/svg" viewBox="0 0 32 32" shape-rendering="geometricPrecision">
      <style>
        .animated { 
          animation: float 4s ease-in-out infinite;
        }
        @keyframes float {
          0%, 100% { transform: translateY(0px); }
          50% { transform: translateY(-3px); }
        }
      </style><path class="animated" fill="#42a5f5" d="M30 6a3.86 3.86 0 0 1-1.167 2.833 4.024 4.024 0 0 1-5.666 0A3.86 3.86 0 0 1 22 6a3.86 3.86 0 0 1 1.167-2.833 4.024 4.024 0 0 1 5.666 0A3.86 3.86 0 0 1 30 6m-9.208 5.208A10.6 10.6 0 0 0 13 8a10.6 10.6 0 0 0-7.792 3.208A10.6 10.6 0 0 0 2 19a10.6 10.6 0 0 0 3.208 7.792A10.6 10.6 0 0 0 13 30a10.6 10.6 0 0 0 7.792-3.208A10.6 10.6 0 0 0 24 19a10.6 10.6 0 0 0-3.208-7.792m-1.959 7.625a4.024 4.024 0 0 1-5.666 0 4.024 4.024 0 0 1 0-5.666 4.024 4.024 0 0 1 5.666 0 4.024 4.024 0 0 1 0 5.666"/></svg>