<svg xmlns="http://www.w3.org/2000/svg" viewBox="0 0 32 32" shape-rendering="geometricPrecision">
      <style>
        .animated { 
          animation: breathing 3s ease-in-out infinite;
        }
        @keyframes breathing {
          0% { opacity: 1; transform: scale(1); }
          50% { opacity: 0.7; transform: scale(1.05); }
          100% { opacity: 1; transform: scale(1); }
        }
      </style><path class="animated" fill="#cfd8dc" d="M16 2a14 14 0 1 0 5.816 26.723L12 14v9a1 1 0 0 1-1 1H9a1 1 0 0 1-1-1V9a1 1 0 0 1 1-1h2.434a1 1 0 0 1 .857.486l11.491 19.15A14 14 0 0 0 16 2m8 16h-4V9a1 1 0 0 1 1-1h2a1 1 0 0 1 1 1Z"/></svg>