<svg xmlns="http://www.w3.org/2000/svg" viewBox="0 0 1024 1024" shape-rendering="geometricPrecision">
      <style>
        .animated { 
          animation: breathing 3s ease-in-out infinite;
        }
        @keyframes breathing {
          0% { opacity: 1; transform: scale(1); }
          50% { opacity: 0.7; transform: scale(1.05); }
          100% { opacity: 1; transform: scale(1); }
        }
      </style><g fill="#00c853"><path class="animated" d="M512 254.16A257.84 257.84 0 0 0 254.16 512 257.84 257.84 0 0 0 512 769.841a257.84 257.84 0 0 0 257.841-257.84 257.84 257.84 0 0 0-257.84-257.842zM941.74 512A429.74 429.74 0 0 1 512 941.74 429.74 429.74 0 0 1 82.262 512 429.74 429.74 0 0 1 512 82.262 429.74 429.74 0 0 1 941.74 512"/><path class="animated" d="M695.945 450.836h-92.08l-.005 122.318h92.084zm-122.854-122.78H450.92v367.89h122.17zm-152.942 122.78h-92.084v122.318h92.08z"/></g></svg>