<svg xmlns="http://www.w3.org/2000/svg" viewBox="0 0 32 32" shape-rendering="geometricPrecision">
      <style>
        .animated { 
          animation: breathing 3s ease-in-out infinite;
        }
        @keyframes breathing {
          0% { opacity: 1; transform: scale(1); }
          50% { opacity: 0.7; transform: scale(1.05); }
          100% { opacity: 1; transform: scale(1); }
        }
      </style><path class="animated" fill="#0288d1" d="M28 10a4 4 0 0 0-4-4h-6v6a6 6 0 0 1-6 6h-2v2h2v6h4v-6h8v6h4V16h2v-4a2 2 0 0 0-2-2"/><path class="animated" fill="#0288d1" d="M12 4H8v2a6 6 0 0 0-6 6v6a2 2 0 0 0 2 2v2H2.5a.5.5 0 0 0-.5.5v3a.5.5 0 0 0 .5.5H6a2 2 0 0 0 2-2v-8h4a4 4 0 0 0 4-4V8a4 4 0 0 0-4-4M6 14H4v-2h2Z"/></svg>