<svg xmlns="http://www.w3.org/2000/svg" viewBox="0 0 24 24" shape-rendering="geometricPrecision">
      <style>
        .animated { 
          animation: pulse 2.5s ease-in-out infinite;
        }
        @keyframes pulse {
          0% { opacity: 1; }
          50% { opacity: 0.7; }
          100% { opacity: 1; }
        }
      </style><path class="animated" fill="#e64a19" d="M6 2h8l6 6v12a2 2 0 0 1-2 2H6a2 2 0 0 1-2-2V4a2 2 0 0 1 2-2m7 1.5V9h5.5zM8 11v2h1v6H8v1h4v-1h-1v-2h2a3 3 0 0 0 3-3 3 3 0 0 0-3-3zm5 2a1 1 0 0 1 1 1 1 1 0 0 1-1 1h-2v-2z"/></svg>