<svg xmlns="http://www.w3.org/2000/svg" viewBox="0 0 32 32" shape-rendering="geometricPrecision">
      <style>
        .animated { 
          animation: pulse 2.5s ease-in-out infinite;
        }
        @keyframes pulse {
          0% { opacity: 1; }
          50% { opacity: 0.7; }
          100% { opacity: 1; }
        }
      </style><path class="animated" fill="#ef5350" d="M24 2H8a6 6 0 0 0-6 6v16a6 6 0 0 0 6 6h16a6 6 0 0 0 6-6V8a6 6 0 0 0-6-6m-8 19.862A2.14 2.14 0 0 1 13.862 24h-1.724A2.14 2.14 0 0 1 10 21.862V10.138A2.14 2.14 0 0 1 12.138 8H16ZM21 14a3 3 0 1 1 3-3 3 3 0 0 1-3 3"/></svg>