<svg xmlns="http://www.w3.org/2000/svg" viewBox="0 0 32 32" shape-rendering="geometricPrecision">
      <style>
        .animated { 
          animation: bounce 3s ease-in-out infinite;
          transform-origin: center bottom;
        }
        @keyframes bounce {
          0%, 100% { transform: translateY(0); }
          50% { transform: translateY(-2px); }
        }
      </style><path class="animated" fill="#ff5252" d="M28.586 18H28a8 8 0 0 0-8-8h-2V8.445a4 4 0 1 0-4 0V10h-2a8 8 0 0 0-8 8h-.586A1.414 1.414 0 0 0 2 19.414v3.172A1.414 1.414 0 0 0 3.414 24H4v1a3 3 0 0 0 3 3h18a3 3 0 0 0 3-3v-1h.586A1.414 1.414 0 0 0 30 22.586v-3.172A1.414 1.414 0 0 0 28.586 18M11 22a3 3 0 1 1 3-3 3 3 0 0 1-3 3m10 0a3 3 0 1 1 3-3 3 3 0 0 1-3 3"/></svg>