<svg xmlns="http://www.w3.org/2000/svg" viewBox="0 0 32 32" shape-rendering="geometricPrecision">
      <style>
        .animated { 
          animation: bounce 3s ease-in-out infinite;
          transform-origin: center bottom;
        }
        @keyframes bounce {
          0%, 100% { transform: translateY(0); }
          50% { transform: translateY(-2px); }
        }
      </style><path class="animated" fill="#2196f3" d="M28 10a1.964 1.964 0 0 1-2-2 2 2 0 1 1 4 0 1.964 1.964 0 0 1-2 2M2 9V7a1 1 0 0 1 1-1h20a1 1 0 0 1 1 1v2a1 1 0 0 1-1 1H3a1 1 0 0 1-1-1m26 9a1.964 1.964 0 1 1 1.425-.575A1.94 1.94 0 0 1 28 18M2 17v-2a1 1 0 0 1 1-1h20a1 1 0 0 1 1 1v2a1 1 0 0 1-1 1H3a1 1 0 0 1-1-1m26 9a1.964 1.964 0 1 1 1.425-.575A1.94 1.94 0 0 1 28 26M2 25v-2a1 1 0 0 1 1-1h20a1 1 0 0 1 1 1v2a1 1 0 0 1-1 1H3a1 1 0 0 1-1-1"/></svg>