<svg xmlns="http://www.w3.org/2000/svg" viewBox="0 0 32 32" shape-rendering="geometricPrecision">
      <style>
        .animated { 
          animation: bounce 3s ease-in-out infinite;
          transform-origin: center bottom;
        }
        @keyframes bounce {
          0%, 100% { transform: translateY(0); }
          50% { transform: translateY(-2px); }
        }
      </style><path class="animated" fill="#757575" d="M15 2H6a2.006 2.006 0 0 0-2 2v22a2.006 2.006 0 0 0 2 2h6v-4H6v-2h6v-2H6v-2h6v-2H6v-2h6v-2h2V4l8 8h2v-1Z" data-mit-no-recolor="true"/><path class="animated" fill="#0288d1" d="M12 12v18h18V12Zm8 6h-2v8h-2v-8h-2v-2h6Zm8 0h-4v2h2a2.006 2.006 0 0 1 2 2v2a2.006 2.006 0 0 1-2 2h-4v-2h4v-2h-2a2.006 2.006 0 0 1-2-2v-2a2.006 2.006 0 0 1 2-2h4Z"/></svg>