<svg xmlns="http://www.w3.org/2000/svg" viewBox="0 0 16 16" shape-rendering="geometricPrecision">
      <style>
        .animated { 
          animation: breathing 3s ease-in-out infinite;
        }
        @keyframes breathing {
          0% { opacity: 1; transform: scale(1); }
          50% { opacity: 0.7; transform: scale(1.05); }
          100% { opacity: 1; transform: scale(1); }
        }
      </style><path class="animated" fill="#455a64" d="M1 8a7 7 0 0 0 4 6.316V15h6v-.684A7 7 0 0 0 15 8z"/><path class="animated" fill="#f5f5f5" d="M8 3a5 5 0 0 0-5 5h10a5 5 0 0 0-5-5"/><path class="animated" fill="#2196f3" d="M2.092 9A6 6 0 0 0 8 14a6 6 0 0 0 5.908-5z"/><g fill="#455a64"><g stroke-width="0"><circle class="animated" cx="5.5" cy="6.5" r=".5"/><circle class="animated" cx="10.5" cy="6.5" r=".5"/><circle class="animated" cx="6.5" cy="5.5" r=".5"/></g><path class="animated" d="M8 2a6 6 0 0 0-6 6h1a5 5 0 0 1 5-5 5 5 0 0 1 5 5h1a6 6 0 0 0-6-6"/></g></svg>