<svg xmlns="http://www.w3.org/2000/svg" viewBox="0 0 32 32" shape-rendering="geometricPrecision">
      <style>
        .animated { 
          animation: breathing 3s ease-in-out infinite;
        }
        @keyframes breathing {
          0% { opacity: 1; transform: scale(1); }
          50% { opacity: 0.7; transform: scale(1.05); }
          100% { opacity: 1; transform: scale(1); }
        }
      </style><path class="animated" fill="#42a5f5" d="M10 14h12v4H10z"/><path class="animated" fill="#42a5f5" d="M12 22H9.562A5.57 5.57 0 0 1 4 16.438v-.876A5.57 5.57 0 0 1 9.562 10H12V6H9.562A9.56 9.56 0 0 0 0 15.562v.876A9.56 9.56 0 0 0 9.562 26H12ZM22.438 6H20v4h2.438A5.57 5.57 0 0 1 28 15.562v.876A5.57 5.57 0 0 1 22.438 22H20v4h2.438A9.56 9.56 0 0 0 32 16.438v-.876A9.56 9.56 0 0 0 22.438 6"/></svg>